<?xml version="1.0" encoding="UTF-8" standalone="no"?>
<!-- Created with Inkscape (http://www.inkscape.org/) -->

<svg
   xmlns:dc="http://purl.org/dc/elements/1.1/"
   xmlns:cc="http://creativecommons.org/ns#"
   xmlns:rdf="http://www.w3.org/1999/02/22-rdf-syntax-ns#"
   xmlns:svg="http://www.w3.org/2000/svg"
   xmlns="http://www.w3.org/2000/svg"
   xmlns:xlink="http://www.w3.org/1999/xlink"
   xmlns:sodipodi="http://sodipodi.sourceforge.net/DTD/sodipodi-0.dtd"
   xmlns:inkscape="http://www.inkscape.org/namespaces/inkscape"
   width="960"
   height="160"
   id="svg2985"
   version="1.1"
   inkscape:version="0.48.4 r9939"
   sodipodi:docname="banner.svg">
  <defs
     id="defs2987">
    <linearGradient
       id="linearGradient4225">
      <stop
         id="stop4227"
         offset="0"
         style="stop-color:#006699;stop-opacity:1;" />
      <stop
         id="stop4229"
         offset="1"
         style="stop-color:#006699;stop-opacity:0;" />
    </linearGradient>
    <linearGradient
       inkscape:collect="always"
       xlink:href="#linearGradient4225-8"
       id="linearGradient4237-6"
       x1="-101.66666"
       y1="-107.91666"
       x2="55.000015"
       y2="-107.91666"
       gradientUnits="userSpaceOnUse"
       gradientTransform="matrix(0.48936172,0,0,1,28.085113,0)" />
    <linearGradient
       id="linearGradient4225-8">
      <stop
         id="stop4227-2"
         offset="0"
         style="stop-color:#006699;stop-opacity:1;" />
      <stop
         id="stop4229-4"
         offset="1"
         style="stop-color:#006699;stop-opacity:0;" />
    </linearGradient>
    <linearGradient
       y2="-107.91666"
       x2="55.000015"
       y1="-107.91666"
       x1="-101.66666"
       gradientTransform="matrix(0.03262407,0,0,0.62886596,-25.349873,-30.390893)"
       gradientUnits="userSpaceOnUse"
       id="linearGradient4254"
       xlink:href="#linearGradient4225-8"
       inkscape:collect="always" />
  </defs>
  <sodipodi:namedview
     id="base"
     pagecolor="#ffffff"
     bordercolor="#666666"
     borderopacity="1.0"
     inkscape:pageopacity="0.0"
     inkscape:pageshadow="2"
     inkscape:zoom="0.84852814"
     inkscape:cx="429.14045"
     inkscape:cy="129.69053"
     inkscape:document-units="px"
     inkscape:current-layer="layer1"
     showgrid="false"
     inkscape:window-width="1280"
     inkscape:window-height="769"
     inkscape:window-x="0"
     inkscape:window-y="0"
     inkscape:window-maximized="1" />
  <metadata
     id="metadata2990">
    <rdf:RDF>
      <cc:Work
         rdf:about="">
        <dc:format>image/svg+xml</dc:format>
        <dc:type
           rdf:resource="http://purl.org/dc/dcmitype/StillImage" />
      </cc:Work>
    </rdf:RDF>
  </metadata>
  <g
     inkscape:groupmode="layer"
     id="layer2"
     inkscape:label="层"
     style="display:inline"
     transform="translate(0,32)">
    <path
       sodipodi:type="arc"
       style="opacity:0.2;fill:#006699;fill-opacity:0.8;stroke:#006699;stroke-width:0;stroke-miterlimit:4;stroke-opacity:1;stroke-dasharray:none"
       id="path4387"
       sodipodi:cx="175.00893"
       sodipodi:cy="51.396767"
       sodipodi:rx="51.26524"
       sodipodi:ry="47.140453"
       d="m 226.27417,51.396767 a 51.26524,47.140453 0 1 1 -102.53048,0 51.26524,47.140453 0 1 1 102.53048,0 z"
       transform="matrix(1.2484093,0,0,1.357645,-142.73908,-34.953707)" />
    <path
       sodipodi:type="arc"
       style="opacity:0.2;fill:#006699;fill-opacity:0.8;stroke:#006699;stroke-width:0;stroke-miterlimit:4;stroke-opacity:1;stroke-dasharray:none"
       id="path4387-0"
       sodipodi:cx="175.00893"
       sodipodi:cy="51.396767"
       sodipodi:rx="51.26524"
       sodipodi:ry="47.140453"
       d="m 226.27417,51.396767 a 51.26524,47.140453 0 1 1 -102.53048,0 51.26524,47.140453 0 1 1 102.53048,0 z"
       transform="matrix(1.2484093,0,0,1.357645,20.325239,-34.953707)" />
    <path
       sodipodi:type="arc"
       style="opacity:0.2;fill:#006699;fill-opacity:0.8;stroke:#006699;stroke-width:0;stroke-miterlimit:4;stroke-opacity:1;stroke-dasharray:none"
       id="path4387-0-4"
       sodipodi:cx="175.00893"
       sodipodi:cy="51.396767"
       sodipodi:rx="51.26524"
       sodipodi:ry="47.140453"
       d="m 226.27417,51.396767 a 51.26524,47.140453 0 1 1 -102.53048,0 51.26524,47.140453 0 1 1 102.53048,0 z"
       transform="matrix(1.2484093,0,0,1.357645,183.38956,-34.953707)" />
    <path
       sodipodi:type="arc"
       style="opacity:0.2;fill:#006699;fill-opacity:0.8;stroke:#006699;stroke-width:0;stroke-miterlimit:4;stroke-opacity:1;stroke-dasharray:none"
       id="path4387-0-1"
       sodipodi:cx="175.00893"
       sodipodi:cy="51.396767"
       sodipodi:rx="51.26524"
       sodipodi:ry="47.140453"
       d="m 226.27417,51.396767 a 51.26524,47.140453 0 1 1 -102.53048,0 51.26524,47.140453 0 1 1 102.53048,0 z"
       transform="matrix(1.2484093,0,0,1.357645,346.45392,-34.953707)" />
    <path
       sodipodi:type="arc"
       style="opacity:0.2;fill:#006699;fill-opacity:0.8;stroke:#006699;stroke-width:0;stroke-miterlimit:4;stroke-opacity:1;stroke-dasharray:none"
       id="path4387-0-0"
       sodipodi:cx="175.00893"
       sodipodi:cy="51.396767"
       sodipodi:rx="51.26524"
       sodipodi:ry="47.140453"
       d="m 226.27417,51.396767 a 51.26524,47.140453 0 1 1 -102.53048,0 51.26524,47.140453 0 1 1 102.53048,0 z"
       transform="matrix(1.2484093,0,0,1.357645,509.51824,-34.953707)" />
    <path
       sodipodi:type="arc"
       style="opacity:0.2;fill:#006699;fill-opacity:0.8;stroke:#006699;stroke-width:0;stroke-miterlimit:4;stroke-opacity:1;stroke-dasharray:none"
       id="path4387-0-2"
       sodipodi:cx="175.00893"
       sodipodi:cy="51.396767"
       sodipodi:rx="51.26524"
       sodipodi:ry="47.140453"
       d="m 226.27417,51.396767 a 51.26524,47.140453 0 1 1 -102.53048,0 51.26524,47.140453 0 1 1 102.53048,0 z"
       transform="matrix(1.2484093,0,0,1.357645,672.58258,-34.953707)" />
  </g>
  <g
     id="layer1"
     inkscape:label="Layer 1"
     inkscape:groupmode="layer"
     transform="translate(0,100)">
    <g
       id="like"
       transform="matrix(2,0,0,2,208.50396,-82.833345)">
      <path
         id="path3060"
         d="M 29.164,10.472 C 27.914,10.144 24.975,10.148 20.676,10.034 20.879,9.096 20.926,8.25 20.926,6.748 20.926,3.16 18.312,0 16,0 14.367,0 13.021,1.335 13,2.977 12.978,4.991 12.355,8.469 9,10.233 8.754,10.363 8.05,10.71 7.947,10.755 L 8,10.8 C 7.475,10.347 6.747,10 6,10 H 3 c -1.654,0 -3,1.346 -3,3 v 16 c 0,1.654 1.346,3 3,3 h 3 c 1.19,0 2.186,-0.719 2.668,-1.727 0.012,0.004 0.033,0.01 0.047,0.012 0.066,0.018 0.144,0.037 0.239,0.062 0.018,0.005 0.027,0.007 0.046,0.012 0.576,0.143 1.685,0.408 4.055,0.953 0.508,0.116 3.192,0.688 5.972,0.688 h 5.467 c 1.666,0 2.867,-0.641 3.582,-1.928 0.01,-0.02 0.24,-0.469 0.428,-1.076 0.141,-0.457 0.193,-1.104 0.023,-1.76 1.074,-0.738 1.42,-1.854 1.645,-2.58 0.377,-1.191 0.264,-2.086 0.002,-2.727 0.604,-0.57 1.119,-1.439 1.336,-2.766 0.135,-0.822 -0.01,-1.668 -0.389,-2.372 0.566,-0.636 0.824,-1.436 0.854,-2.176 l 0.012,-0.209 C 31.994,14.275 32,14.194 32,13.906 32,12.643 31.125,11.032 29.164,10.472 z M 7,29 c 0,0.553 -0.447,1 -1,1 H 3 C 2.447,30 2,29.553 2,29 V 13 c 0,-0.553 0.447,-1 1,-1 h 3 c 0.553,0 1,0.447 1,1 V 29 z M 29.977,14.535 C 29.957,15.029 29.75,16 28,16 c -1.5,0 -2,0 -2,0 -0.277,0 -0.5,0.224 -0.5,0.5 0,0.276 0.223,0.5 0.5,0.5 0,0 0.438,0 1.938,0 1.5,0 1.697,1.244 1.6,1.844 C 29.414,19.59 29.064,21 27.375,21 25.688,21 25,21 25,21 c -0.277,0 -0.5,0.223 -0.5,0.5 0,0.275 0.223,0.5 0.5,0.5 0,0 1.188,0 1.969,0 1.688,0 1.539,1.287 1.297,2.055 C 27.947,25.064 27.752,26 25.625,26 c -0.719,0 -1.631,0 -1.631,0 -0.277,0 -0.5,0.223 -0.5,0.5 0,0.275 0.223,0.5 0.5,0.5 0,0 0.693,0 1.568,0 1.094,0 1.145,1.035 1.031,1.406 -0.125,0.406 -0.273,0.707 -0.279,0.721 C 26.012,29.672 25.525,30 24.494,30 h -5.467 c -2.746,0 -5.47,-0.623 -5.54,-0.639 -4.154,-0.957 -4.373,-1.031 -4.634,-1.105 0,0 -0.846,-0.143 -0.846,-0.881 L 8,13.563 C 8,13.094 8.299,12.67 8.794,12.521 8.856,12.497 8.94,12.471 9,12.446 13.568,10.554 14.959,6.406 15,3 c 0.006,-0.479 0.375,-1 1,-1 1.057,0 2.926,2.122 2.926,4.748 0,2.371 -0.096,2.781 -0.926,5.252 10,0 9.93,0.144 10.812,0.375 1.094,0.313 1.188,1.219 1.188,1.531 0,0.343 -0.01,0.293 -0.023,0.629 z"
         clip-rule="evenodd"
         inkscape:connector-curvature="0"
         style="fill:#333333;fill-rule:evenodd" />
      <path
         id="path3062"
         d="M 4.5,26 C 3.672,26 3,26.672 3,27.5 3,28.328 3.672,29 4.5,29 5.328,29 6,28.328 6,27.5 6,26.672 5.328,26 4.5,26 z m 0,2 C 4.225,28 4,27.775 4,27.5 4,27.225 4.225,27 4.5,27 4.775,27 5,27.225 5,27.5 5,27.775 4.775,28 4.5,28 z"
         clip-rule="evenodd"
         inkscape:connector-curvature="0"
         style="fill:#333333;fill-rule:evenodd" />
    </g>
    <g
       id="search_1_"
       transform="matrix(2,0,0,1.9999375,696.90126,-82.843345)">
      <path
         id="path3125"
         d="m 20,0.005 c -6.627,0 -12,5.373 -12,12 0,2.026 0.507,3.933 1.395,5.608 l -8.344,8.342 0.007,0.006 C 0.406,26.602 0,27.49 0,28.477 c 0,1.949 1.58,3.529 3.529,3.529 0.985,0 1.874,-0.406 2.515,-1.059 l -0.002,-0.002 8.341,-8.34 c 1.676,0.891 3.586,1.4 5.617,1.4 6.627,0 12,-5.373 12,-12 0,-6.627 -5.373,-12 -12,-12 z M 4.795,29.697 c -0.322,0.334 -0.768,0.543 -1.266,0.543 -0.975,0 -1.765,-0.789 -1.765,-1.764 0,-0.498 0.21,-0.943 0.543,-1.266 l -0.009,-0.008 8.066,-8.066 c 0.705,0.951 1.545,1.791 2.494,2.498 L 4.795,29.697 z M 20,22.006 c -5.522,0 -10,-4.479 -10,-10 0,-5.522 4.478,-10 10,-10 5.521,0 10,4.478 10,10 0,5.521 -4.479,10 -10,10 z"
         inkscape:connector-curvature="0"
         style="fill:#333333" />
      <path
         id="path3127"
         d="m 20,5.005 c -3.867,0 -7,3.134 -7,7 0,0.276 0.224,0.5 0.5,0.5 0.276,0 0.5,-0.224 0.5,-0.5 0,-3.313 2.686,-6 6,-6 0.275,0 0.5,-0.224 0.5,-0.5 0,-0.276 -0.225,-0.5 -0.5,-0.5 z"
         inkscape:connector-curvature="0"
         style="fill:#333333" />
    </g>
    <g
       id="settings"
       transform="matrix(2,0,0,2.0000625,534.10214,-82.837345)">
      <path
         id="path3192"
         d="M 30.391,12.68 27.327,12.066 C 27.173,11.623 26.991,11.193 26.79,10.777 L 28.526,8.173 C 29.055,7.38 28.95,6.323 28.276,5.65 L 26.352,3.726 C 25.965,3.339 25.454,3.14 24.936,3.14 c -0.383,0 -0.77,0.11 -1.107,0.336 L 21.225,5.211 C 20.807,5.009 20.377,4.829 19.934,4.675 L 19.32,1.61 C 19.134,0.674 18.312,0.002 17.359,0.002 h -2.72 c -0.953,0 -1.774,0.673 -1.961,1.608 L 12.064,4.675 C 11.621,4.829 11.191,5.01 10.775,5.211 L 8.172,3.476 C 7.833,3.25 7.447,3.14 7.063,3.14 6.546,3.14 6.035,3.339 5.648,3.726 L 3.725,5.65 C 3.051,6.324 2.946,7.38 3.475,8.173 l 1.735,2.604 c -0.202,0.417 -0.382,0.847 -0.536,1.29 L 1.608,12.68 C 0.673,12.867 0,13.688 0,14.641 v 2.72 c 0,0.953 0.673,1.775 1.608,1.961 l 3.065,0.615 c 0.154,0.443 0.335,0.873 0.536,1.289 L 3.475,23.83 c -0.529,0.793 -0.424,1.85 0.25,2.523 l 1.924,1.924 c 0.387,0.387 0.898,0.586 1.415,0.586 0.384,0 0.771,-0.111 1.108,-0.336 l 2.604,-1.736 c 0.417,0.203 0.847,0.383 1.29,0.537 l 0.613,3.064 c 0.187,0.936 1.008,1.609 1.961,1.609 h 2.72 c 0.953,0 1.775,-0.674 1.961,-1.609 l 0.615,-3.064 c 0.443,-0.154 0.873,-0.336 1.289,-0.537 l 2.604,1.736 c 0.338,0.225 0.725,0.336 1.107,0.336 0.518,0 1.029,-0.199 1.416,-0.586 l 1.924,-1.924 c 0.674,-0.674 0.779,-1.73 0.25,-2.523 L 26.79,21.226 c 0.203,-0.418 0.383,-0.848 0.537,-1.291 l 3.064,-0.613 C 31.326,19.137 32,18.314 32,17.361 v -2.72 c 0,-0.953 -0.674,-1.774 -1.609,-1.961 z m -3.457,5.295 c -0.695,0.139 -1.264,0.635 -1.496,1.305 -0.129,0.369 -0.279,0.727 -0.447,1.074 -0.311,0.639 -0.258,1.393 0.135,1.982 l 1.736,2.604 -1.924,1.924 -2.604,-1.736 C 22,24.905 21.613,24.792 21.225,24.792 c -0.297,0 -0.596,0.066 -0.871,0.199 -0.348,0.168 -0.705,0.32 -1.076,0.449 -0.668,0.232 -1.164,0.801 -1.303,1.496 l -0.615,3.066 h -2.72 l -0.613,-3.066 c -0.139,-0.695 -0.635,-1.264 -1.304,-1.496 -0.369,-0.129 -0.728,-0.279 -1.075,-0.447 -0.276,-0.135 -0.574,-0.201 -0.872,-0.201 -0.389,0 -0.775,0.113 -1.109,0.336 L 7.063,26.864 5.139,24.94 6.874,22.336 C 7.267,21.746 7.318,20.992 7.011,20.356 6.843,20.008 6.692,19.651 6.563,19.28 6.331,18.612 5.761,18.116 5.067,17.977 L 2.002,17.362 2,14.641 5.066,14.028 C 5.76,13.889 6.33,13.393 6.562,12.724 6.691,12.355 6.84,11.996 7.009,11.649 7.319,11.011 7.267,10.257 6.873,9.668 L 5.139,7.064 7.062,5.14 9.666,6.875 c 0.334,0.223 0.721,0.336 1.109,0.336 0.297,0 0.595,-0.066 0.871,-0.199 0.347,-0.168 0.705,-0.319 1.075,-0.448 0.669,-0.232 1.165,-0.802 1.304,-1.496 l 0.614,-3.065 2.72,-0.001 0.613,3.066 c 0.139,0.694 0.635,1.264 1.305,1.496 0.369,0.129 0.727,0.278 1.074,0.447 0.277,0.134 0.574,0.2 0.873,0.2 0.389,0 0.775,-0.113 1.109,-0.336 l 2.604,-1.735 1.924,1.924 -1.736,2.604 c -0.393,0.59 -0.443,1.343 -0.137,1.98 0.168,0.347 0.32,0.705 0.449,1.075 0.232,0.669 0.801,1.165 1.496,1.304 l 3.064,0.614 0.003,2.72 -3.066,0.614 z"
         inkscape:connector-curvature="0"
         style="fill:#333333" />
      <path
         id="path3194"
         d="m 16,9.001 c -3.865,0 -7,3.135 -7,7 0,3.866 3.135,7 7,7 3.865,0 7,-3.135 7,-7 0,-3.865 -3.135,-7 -7,-7 z m 0,13.126 c -3.382,0 -6.125,-2.744 -6.125,-6.125 0,-3.382 2.743,-6.125 6.125,-6.125 3.381,0 6.125,2.743 6.125,6.125 0,3.381 -2.744,6.125 -6.125,6.125 z"
         inkscape:connector-curvature="0"
         style="fill:#333333" />
      <path
         id="path3196"
         d="m 16,12.001 c -2.21,0 -4,1.79 -4,4 0,2.209 1.79,4 4,4 2.209,0 4,-1.791 4,-4 0,-2.209 -1.791,-4 -4,-4 z m 0,7.001 c -1.656,0 -3,-1.344 -3,-3 0,-1.656 1.344,-3 3,-3 1.656,0 3,1.344 3,3 0,1.656 -1.344,3 -3,3 z"
         inkscape:connector-curvature="0"
         style="fill:#333333" />
    </g>
    <g
       id="calendar_1_"
       transform="matrix(2,0,0,2,371.30308,-82.833345)">
      <path
         id="path3276"
         d="M 29.334,3 H 25 V 1 C 25,0.447 24.553,0 24,0 23.447,0 23,0.447 23,1 V 3 H 17 V 1 C 17,0.447 16.552,0 16,0 15.448,0 15,0.447 15,1 V 3 H 9 V 1 C 9,0.447 8.552,0 8,0 7.448,0 7,0.447 7,1 V 3 H 2.667 C 1.194,3 0,4.193 0,5.666 V 29.333 C 0,30.806 1.194,32 2.667,32 H 29.334 C 30.807,32 32,30.806 32,29.333 V 5.666 C 32,4.193 30.807,3 29.334,3 z M 30,29.333 C 30,29.701 29.701,30 29.334,30 H 2.667 C 2.299,30 2,29.701 2,29.333 V 5.666 C 2,5.299 2.299,5 2.667,5 H 7 V 7 C 7,7.553 7.448,8 8,8 8.552,8 9,7.553 9,7 V 5 h 6 v 2 c 0,0.553 0.448,1 1,1 0.552,0 1,-0.447 1,-1 V 5 h 6 v 2 c 0,0.553 0.447,1 1,1 0.553,0 1,-0.447 1,-1 V 5 h 4.334 C 29.701,5 30,5.299 30,5.666 v 23.667 z"
         inkscape:connector-curvature="0"
         style="fill:#333332" />
      <rect
         id="rect3278"
         y="12"
         x="7"
         width="4"
         height="3"
         style="fill:#333332" />
      <rect
         id="rect3280"
         y="17"
         x="7"
         width="4"
         height="3"
         style="fill:#333332" />
      <rect
         id="rect3282"
         y="22"
         x="7"
         width="4"
         height="3"
         style="fill:#333332" />
      <rect
         id="rect3284"
         y="22"
         x="14"
         width="4"
         height="3"
         style="fill:#333332" />
      <rect
         id="rect3286"
         y="17"
         x="14"
         width="4"
         height="3"
         style="fill:#333332" />
      <rect
         id="rect3288"
         y="12"
         x="14"
         width="4"
         height="3"
         style="fill:#333332" />
      <rect
         id="rect3290"
         y="22"
         x="21"
         width="4"
         height="3"
         style="fill:#333332" />
      <rect
         id="rect3292"
         y="17"
         x="21"
         width="4"
         height="3"
         style="fill:#333332" />
      <rect
         id="rect3294"
         y="12"
         x="21"
         width="4"
         height="3"
         style="fill:#333332" />
    </g>
    <g
       transform="matrix(0.73142906,0,0,1.0239998,845.70075,-1070.1808)"
       id="layer1-6"
       style="fill:#000000;fill-opacity:0.72081221">
      <path
         style="color:#000000;fill:#000000;fill-opacity:0.72081221;fill-rule:nonzero;stroke:none;stroke-width:1;marker:none;visibility:visible;display:inline;overflow:visible;enable-background:accumulate"
         id="path4181"
         d="m 58.723294,966.29002 -39.583305,22.91663 8.333327,0 0,4.16661 0,25.00014 0,4.1666 c 0,2.0834 1.858332,4.1667 4.166664,4.1667 l 12.499991,0 0,-20.8333 c 0,-2.3084 1.858291,-4.1667 4.166664,-4.1667 l 29.166646,0 c 2.308373,0 4.09458,1.8595 4.166663,4.1667 l 0,20.8333 12.499992,0 c 2.308331,0 4.166663,-1.8583 4.166663,-4.1667 l 0,-4.1666 0,-25.00014 0,-4.16661 8.333331,0 -39.583308,-22.91663 c -1.781124,-1.03125 -3.533998,-2.08124 -4.166664,-2.08333 -0.63275,-0.002 -2.358248,1.03625 -4.166664,2.08333 z m -10.416659,39.58338 0,4.1666 29.166646,0 0,-4.1666 z m 0,8.3333 0,4.1667 29.166646,0 0,-4.1667 z m 0,8.3333 0,4.1667 29.166646,0 0,-4.1667 z"
         inkscape:connector-curvature="0" />
    </g>
    <g
       id="use4179"
       transform="matrix(2,0,0,2.4615385,45.70486,-90.217961)"
       style="fill:#ff0000">
      <path
         id="path4183"
         d="M 24.832,11.445 C 24.646,11.167 24.334,11 24,11 h -1 c -0.553,0 -1,0.447 -1,1 v 6 c 0,0.553 0.447,1 1,1 h 4 c 0.553,0 1,-0.447 1,-1 v -1.5 c 0,-0.197 -0.059,-0.391 -0.168,-0.555 l -3,-4.5 z M 27,18 h -4 v -6 h 1 l 3,4.5 V 18 z"
         inkscape:connector-curvature="0"
         style="fill:#333332" />
      <path
         id="path4185"
         d="m 31.496,15.336 -4,-6 C 26.938,8.499 26.004,8 25,8 H 21 V 6 C 21,4.346 19.654,3 18,3 H 3 C 1.346,3 0,4.346 0,6 v 11 c 0,1.654 1.346,3 3,3 h 0 v 3 c 0,1.654 1.346,3 3,3 h 1.142 c 0.447,1.721 2,3 3.859,3 1.857,0 3.41,-1.279 3.857,-3 h 5.282 c 0.447,1.721 2,3 3.859,3 1.857,0 3.41,-1.279 3.857,-3 H 29 c 1.654,0 3,-1.346 3,-3 v -6 c 0,-0.594 -0.174,-1.17 -0.504,-1.664 z M 3,18 C 2.448,18 2,17.553 2,17 V 6 C 2,5.447 2.448,5 3,5 h 15 c 0.553,0 1,0.447 1,1 v 2 2 7 c 0,0.553 -0.447,1 -1,1 H 3 z m 8.001,9 c -1.105,0 -2,-0.896 -2,-2 0,-1.104 0.895,-2 2,-2 1.104,0 2,0.896 2,2 0,1.104 -0.897,2 -2,2 z M 24,27 c -1.105,0 -2,-0.896 -2,-2 0,-1.104 0.895,-2 2,-2 1.104,0 2,0.896 2,2 0,1.104 -0.896,2 -2,2 z m 6,-4 c 0,0.553 -0.447,1 -1,1 h -1.143 c -0.447,-1.721 -2,-3 -3.857,-3 -1.859,0 -3.412,1.279 -3.859,3 h -5.282 c -0.447,-1.721 -2,-3 -3.857,-3 -1.859,0 -3.412,1.279 -3.859,3 H 6 C 5.448,24 5,23.553 5,23 v -3 h 13 c 1.654,0 3,-1.346 3,-3 v -7 h 4 c 0.334,0 0.646,0.167 0.832,0.445 l 4,6 C 29.941,16.609 30,16.803 30,17 v 6 z"
         inkscape:connector-curvature="0"
         style="fill:#333332" />
    </g>
    <rect
       style="fill:#006699;fill-opacity:0.8;stroke:#006699;stroke-width:0;stroke-miterlimit:4;stroke-opacity:1;stroke-dasharray:none"
       id="rect4215"
       width="5.1111031"
       height="12.654643"
       x="34.508781"
       y="-1.1243999"
       transform="matrix(0,-1,1,0,0,0)" />
    <text
       xml:space="preserve"
       style="font-size:20px;font-style:normal;font-variant:normal;font-weight:normal;font-stretch:normal;text-align:start;line-height:125%;letter-spacing:0px;word-spacing:0px;writing-mode:lr-tb;text-anchor:start;fill:#000000;fill-opacity:1;stroke:none;font-family:Sans;-inkscape-font-specification:Sans"
       x="35.999977"
       y="4.8214874"
       id="text4273"
       sodipodi:linespacing="125%"><tspan
         sodipodi:role="line"
         id="tspan4275"
         x="35.999977"
         y="4.8214874">卸货/发货</tspan></text>
    <text
       xml:space="preserve"
       style="font-size:20px;font-style:normal;font-variant:normal;font-weight:normal;font-stretch:normal;text-align:start;line-height:125%;letter-spacing:0px;word-spacing:0px;writing-mode:lr-tb;text-anchor:start;fill:#000000;fill-opacity:1;stroke:none;font-family:Sans;-inkscape-font-specification:Sans"
       x="202.40063"
       y="4.9386749"
       id="text4273-7"
       sodipodi:linespacing="125%"><tspan
         sodipodi:role="line"
         id="tspan4275-6"
         x="202.40063"
         y="4.9386749">订单处理</tspan></text>
    <text
       xml:space="preserve"
       style="font-size:20px;font-style:normal;font-variant:normal;font-weight:normal;font-stretch:normal;text-align:start;line-height:125%;letter-spacing:0px;word-spacing:0px;writing-mode:lr-tb;text-anchor:start;fill:#000000;fill-opacity:1;stroke:none;font-family:Sans;-inkscape-font-specification:Sans"
       x="548.15118"
       y="5.4269562"
       id="text4273-7-7"
       sodipodi:linespacing="125%"><tspan
         sodipodi:role="line"
         id="tspan4275-6-8"
         x="548.15118"
         y="5.4269562">调度</tspan></text>
    <text
       xml:space="preserve"
       style="font-size:20px;font-style:normal;font-variant:normal;font-weight:normal;font-stretch:normal;text-align:start;line-height:125%;letter-spacing:0px;word-spacing:0px;writing-mode:lr-tb;text-anchor:start;fill:#000000;fill-opacity:1;stroke:none;font-family:Sans;-inkscape-font-specification:Sans"
       x="873.65759"
       y="4.6652374"
       id="text4273-7-7-0"
       sodipodi:linespacing="125%"><tspan
         sodipodi:role="line"
         x="873.65759"
         y="4.6652374"
         id="tspan4340">仓储</tspan></text>
    <text
       xml:space="preserve"
       style="font-size:20px;font-style:normal;font-variant:normal;font-weight:normal;font-stretch:normal;text-align:start;line-height:125%;letter-spacing:0px;word-spacing:0px;writing-mode:lr-tb;text-anchor:start;fill:#000000;fill-opacity:1;stroke:none;font-family:Sans;-inkscape-font-specification:Sans"
       x="710.57727"
       y="5.0753937"
       id="text4273-7-7-0-9"
       sodipodi:linespacing="125%"><tspan
         sodipodi:role="line"
         x="710.57727"
         y="5.0753937"
         id="tspan4340-2">质检</tspan></text>
    <text
       xml:space="preserve"
       style="font-size:20px;font-style:normal;font-variant:normal;font-weight:normal;font-stretch:normal;text-align:start;line-height:125%;letter-spacing:0px;word-spacing:0px;writing-mode:lr-tb;text-anchor:start;fill:#000000;fill-opacity:1;stroke:none;font-family:Sans;-inkscape-font-specification:Sans"
       x="385.26614"
       y="5.2511749"
       id="text4273-7-4"
       sodipodi:linespacing="125%"><tspan
         sodipodi:role="line"
         id="tspan4275-6-0"
         x="385.26614"
         y="5.2511749">生产</tspan></text>
    <rect
       style="fill:#006699;fill-opacity:0.8;stroke:#006699;stroke-width:0;stroke-miterlimit:4;stroke-opacity:1;stroke-dasharray:none"
       id="rect4215-3"
       width="5.1111031"
       height="36"
       x="34.508781"
       y="139.00601"
       transform="matrix(0,-1,1,0,0,0)" />
    <rect
       style="fill:#006699;fill-opacity:0.8;stroke:#006699;stroke-width:0;stroke-miterlimit:4;stroke-opacity:1;stroke-dasharray:none"
       id="rect4215-3-3"
       width="5.1111031"
       height="36"
       x="34.508781"
       y="465.65411"
       transform="matrix(0,-1,1,0,0,0)" />
    <rect
       style="fill:#006699;fill-opacity:0.8;stroke:#006699;stroke-width:0;stroke-miterlimit:4;stroke-opacity:1;stroke-dasharray:none"
       id="rect4215-3-35"
       width="5.1111031"
       height="36"
       x="34.508781"
       y="628.93335"
       transform="matrix(0,-1,1,0,0,0)" />
    <rect
       style="fill:#006699;fill-opacity:0.8;stroke:#006699;stroke-width:0;stroke-miterlimit:4;stroke-opacity:1;stroke-dasharray:none"
       id="rect4215-3-9"
       width="5.1111031"
       height="36"
       x="34.508781"
       y="792.28192"
       transform="matrix(0,-1,1,0,0,0)" />
    <rect
       style="fill:#006699;fill-opacity:0.8;stroke:#006699;stroke-width:0;stroke-miterlimit:4;stroke-opacity:1;stroke-dasharray:none"
       id="rect4215-3-5"
       width="5.1111031"
       height="36"
       x="34.508781"
       y="301.69202"
       transform="matrix(0,-1,1,0,0,0)" />
    <rect
       style="fill:#006699;fill-opacity:0.8;stroke:#006699;stroke-width:0;stroke-miterlimit:4;stroke-opacity:1;stroke-dasharray:none"
       id="rect4215-3-9-0"
       width="5.1111031"
       height="827.95959"
       x="-55.12746"
       y="71.566887"
       transform="matrix(0,-1,1,0,0,0)" />
    <rect
       style="fill:#006699;fill-opacity:0.8;stroke:#006699;stroke-width:0;stroke-miterlimit:4;stroke-opacity:1;stroke-dasharray:none"
       id="rect4215-3-3-9"
       width="5.1111031"
       height="25.393398"
       x="-899.75964"
       y="-54.429768"
       transform="scale(-1,-1)" />
    <rect
       style="fill:#006699;fill-opacity:0.8;stroke:#006699;stroke-width:0;stroke-miterlimit:4;stroke-opacity:1;stroke-dasharray:none"
       id="rect4215-3-3-9-8"
       width="5.1111031"
       height="25.393398"
       x="-75.623268"
       y="-53.019035"
       transform="scale(-1,-1)" />
  </g>
</svg>
