<?xml version="1.0" encoding="UTF-8" standalone="no"?>
<!-- Created with Inkscape (http://www.inkscape.org/) -->

<svg
   xmlns:dc="http://purl.org/dc/elements/1.1/"
   xmlns:cc="http://creativecommons.org/ns#"
   xmlns:rdf="http://www.w3.org/1999/02/22-rdf-syntax-ns#"
   xmlns:svg="http://www.w3.org/2000/svg"
   xmlns="http://www.w3.org/2000/svg"
   xmlns:xlink="http://www.w3.org/1999/xlink"
   xmlns:sodipodi="http://sodipodi.sourceforge.net/DTD/sodipodi-0.dtd"
   xmlns:inkscape="http://www.inkscape.org/namespaces/inkscape"
   width="840"
   height="180"
   id="svg4923"
   version="1.1"
   inkscape:version="0.48.4 r9939"
   sodipodi:docname="banner_2.svg"
   inkscape:export-filename="/home/xc/work/litefac-launchpad-env/litefac-launchpad/litefac_launchpad/static/images/banner.png"
   inkscape:export-xdpi="90"
   inkscape:export-ydpi="90">
  <defs
     id="defs4925">
    <radialGradient
       inkscape:collect="always"
       xlink:href="#linearGradient4206"
       id="radialGradient4204"
       cx="243.95184"
       cy="234.2804"
       fx="243.95184"
       fy="234.2804"
       r="210.3998"
       gradientTransform="matrix(1,0,0,0.99719939,0,0.65612899)"
       gradientUnits="userSpaceOnUse" />
    <linearGradient
       id="linearGradient4206">
      <stop
         id="stop4208"
         offset="0"
         style="stop-color:#00000c;stop-opacity:1;" />
      <stop
         style="stop-color:#010413;stop-opacity:0.96862745;"
         offset="0.03125"
         id="stop4220" />
      <stop
         style="stop-color:#03091b;stop-opacity:0.9372549;"
         offset="0.0625"
         id="stop4218" />
      <stop
         style="stop-color:#06132a;stop-opacity:0.8745098;"
         offset="0.125"
         id="stop4216" />
      <stop
         style="stop-color:#0c2648;stop-opacity:0.74901961;"
         offset="0.25"
         id="stop4214" />
      <stop
         style="stop-color:#194c85;stop-opacity:0.49803922;"
         offset="0.5"
         id="stop4212" />
      <stop
         id="stop4222"
         offset="0.75"
         style="stop-color:#2672c2;stop-opacity:0.24705882;" />
      <stop
         id="stop4210"
         offset="1"
         style="stop-color:#3399ff;stop-opacity:1;" />
    </linearGradient>
  </defs>
  <sodipodi:namedview
     id="base"
     pagecolor="#ffffff"
     bordercolor="#666666"
     borderopacity="1.0"
     inkscape:pageopacity="0.0"
     inkscape:pageshadow="2"
     inkscape:zoom="1"
     inkscape:cx="487.85294"
     inkscape:cy="-65.779811"
     inkscape:document-units="px"
     inkscape:current-layer="layer1"
     showgrid="false"
     inkscape:snap-page="true"
     inkscape:snap-center="true"
     inkscape:snap-object-midpoints="true"
     inkscape:snap-midpoints="true"
     inkscape:object-nodes="true"
     inkscape:object-paths="true"
     inkscape:window-width="1680"
     inkscape:window-height="1021"
     inkscape:window-x="0"
     inkscape:window-y="0"
     inkscape:window-maximized="1" />
  <metadata
     id="metadata4928">
    <rdf:RDF>
      <cc:Work
         rdf:about="">
        <dc:format>image/svg+xml</dc:format>
        <dc:type
           rdf:resource="http://purl.org/dc/dcmitype/StillImage" />
        <dc:title></dc:title>
      </cc:Work>
    </rdf:RDF>
  </metadata>
  <g
     inkscape:groupmode="layer"
     id="layer2"
     inkscape:label="层"
     style="display:inline">
    <path
       sodipodi:type="arc"
       style="fill:#3399ff;fill-opacity:0.8;stroke:none;display:inline"
       id="path4387"
       sodipodi:cx="175.00893"
       sodipodi:cy="51.396767"
       sodipodi:rx="51.26524"
       sodipodi:ry="47.140453"
       d="m 226.27417,51.396767 a 51.26524,47.140453 0 1 1 -102.53048,0 51.26524,47.140453 0 1 1 102.53048,0 z"
       transform="matrix(1.0923581,0,0,1.1879394,-133.17241,0.29575399)" />
    <path
       sodipodi:type="arc"
       style="fill:#3399ff;fill-opacity:0.8;stroke:none;display:inline"
       id="path4387-67"
       sodipodi:cx="175.00893"
       sodipodi:cy="51.396767"
       sodipodi:rx="51.26524"
       sodipodi:ry="47.140453"
       d="m 226.27417,51.396767 a 51.26524,47.140453 0 1 1 -102.53048,0 51.26524,47.140453 0 1 1 102.53048,0 z"
       transform="matrix(1.0923581,0,0,1.1879394,-13.839082,0.29575399)" />
    <path
       sodipodi:type="arc"
       style="fill:#3399ff;fill-opacity:0.8;stroke:none;display:inline"
       id="path4387-67-7"
       sodipodi:cx="175.00893"
       sodipodi:cy="51.396767"
       sodipodi:rx="51.26524"
       sodipodi:ry="47.140453"
       d="m 226.27417,51.396767 a 51.26524,47.140453 0 1 1 -102.53048,0 51.26524,47.140453 0 1 1 102.53048,0 z"
       transform="matrix(1.0923581,0,0,1.1879394,105.49426,0.29575399)" />
    <path
       sodipodi:type="arc"
       style="fill:#3399ff;fill-opacity:0.8;stroke:none;display:inline"
       id="path4387-67-7-7"
       sodipodi:cx="175.00893"
       sodipodi:cy="51.396767"
       sodipodi:rx="51.26524"
       sodipodi:ry="47.140453"
       d="m 226.27417,51.396767 a 51.26524,47.140453 0 1 1 -102.53048,0 51.26524,47.140453 0 1 1 102.53048,0 z"
       transform="matrix(1.0923581,0,0,1.1879394,224.82758,0.29575399)" />
    <path
       sodipodi:type="arc"
       style="fill:#3399ff;fill-opacity:0.8;stroke:none;display:inline"
       id="path4387-67-7-7-4"
       sodipodi:cx="175.00893"
       sodipodi:cy="51.396767"
       sodipodi:rx="51.26524"
       sodipodi:ry="47.140453"
       d="m 226.27417,51.396767 a 51.26524,47.140453 0 1 1 -102.53048,0 51.26524,47.140453 0 1 1 102.53048,0 z"
       transform="matrix(1.0923581,0,0,1.1879394,344.16095,0.29575399)" />
    <path
       sodipodi:type="arc"
       style="fill:#3399ff;fill-opacity:0.8;stroke:none;display:inline"
       id="path4387-67-7-7-4-7"
       sodipodi:cx="175.00893"
       sodipodi:cy="51.396767"
       sodipodi:rx="51.26524"
       sodipodi:ry="47.140453"
       d="m 226.27417,51.396767 a 51.26524,47.140453 0 1 1 -102.53048,0 51.26524,47.140453 0 1 1 102.53048,0 z"
       transform="matrix(1.0923581,0,0,1.1879394,463.49427,0.29575399)" />
    <path
       sodipodi:type="arc"
       style="fill:#3399ff;fill-opacity:0.8;stroke:none;display:inline"
       id="path4387-67-7-7-4-7-8"
       sodipodi:cx="175.00893"
       sodipodi:cy="51.396767"
       sodipodi:rx="51.26524"
       sodipodi:ry="47.140453"
       d="m 226.27417,51.396767 a 51.26524,47.140453 0 1 1 -102.53048,0 51.26524,47.140453 0 1 1 102.53048,0 z"
       transform="matrix(1.0923581,0,0,1.1879394,582.82758,0.29575399)" />
  </g>
  <g
     id="layer1"
     inkscape:label="Layer 1"
     inkscape:groupmode="layer"
     transform="translate(0,90)"
     style="display:inline">
    <g
       style="display:inline"
       id="g4341"
       transform="translate(-64.627834,265.81204)">
      <g
         style="fill:#ff0000"
         transform="matrix(2,0,0,2.4615385,209.96117,-345.04281)"
         id="use4179">
        <path
           style="fill:#333332"
           inkscape:connector-curvature="0"
           d="M 24.832,11.445 C 24.646,11.167 24.334,11 24,11 h -1 c -0.553,0 -1,0.447 -1,1 v 6 c 0,0.553 0.447,1 1,1 h 4 c 0.553,0 1,-0.447 1,-1 v -1.5 c 0,-0.197 -0.059,-0.391 -0.168,-0.555 l -3,-4.5 z M 27,18 h -4 v -6 h 1 l 3,4.5 V 18 z"
           id="path4183" />
        <path
           style="fill:#333332"
           inkscape:connector-curvature="0"
           d="m 31.496,15.336 -4,-6 C 26.938,8.499 26.004,8 25,8 H 21 V 6 C 21,4.346 19.654,3 18,3 H 3 C 1.346,3 0,4.346 0,6 v 11 c 0,1.654 1.346,3 3,3 h 0 v 3 c 0,1.654 1.346,3 3,3 h 1.142 c 0.447,1.721 2,3 3.859,3 1.857,0 3.41,-1.279 3.857,-3 h 5.282 c 0.447,1.721 2,3 3.859,3 1.857,0 3.41,-1.279 3.857,-3 H 29 c 1.654,0 3,-1.346 3,-3 v -6 c 0,-0.594 -0.174,-1.17 -0.504,-1.664 z M 3,18 C 2.448,18 2,17.553 2,17 V 6 C 2,5.447 2.448,5 3,5 h 15 c 0.553,0 1,0.447 1,1 v 2 2 7 c 0,0.553 -0.447,1 -1,1 H 3 z m 8.001,9 c -1.105,0 -2,-0.896 -2,-2 0,-1.104 0.895,-2 2,-2 1.104,0 2,0.896 2,2 0,1.104 -0.897,2 -2,2 z M 24,27 c -1.105,0 -2,-0.896 -2,-2 0,-1.104 0.895,-2 2,-2 1.104,0 2,0.896 2,2 0,1.104 -0.896,2 -2,2 z m 6,-4 c 0,0.553 -0.447,1 -1,1 h -1.143 c -0.447,-1.721 -2,-3 -3.857,-3 -1.859,0 -3.412,1.279 -3.859,3 h -5.282 c -0.447,-1.721 -2,-3 -3.857,-3 -1.859,0 -3.412,1.279 -3.859,3 H 6 C 5.448,24 5,23.553 5,23 v -3 h 13 c 1.654,0 3,-1.346 3,-3 v -7 h 4 c 0.334,0 0.646,0.167 0.832,0.445 l 4,6 C 29.941,16.609 30,16.803 30,17 v 6 z"
           id="path4185" />
      </g>
      <text
         sodipodi:linespacing="125%"
         id="text4273"
         y="-250.00336"
         x="221.10179"
         style="font-size:20px;font-style:normal;font-variant:normal;font-weight:normal;font-stretch:normal;text-align:start;line-height:125%;letter-spacing:0px;word-spacing:0px;writing-mode:lr-tb;text-anchor:start;fill:#000000;fill-opacity:1;stroke:none;font-family:Sans;-inkscape-font-specification:Sans"
         xml:space="preserve"><tspan
           y="-250.00336"
           x="221.10179"
           id="tspan4275"
           sodipodi:role="line">司机</tspan></text>
    </g>
    <g
       style="display:inline"
       id="g4301"
       transform="translate(-99.44138,-3.7128652)">
      <g
         transform="matrix(2,0,0,2,364.10806,-68.13329)"
         id="calendar_1_">
        <path
           style="fill:#333332"
           inkscape:connector-curvature="0"
           d="M 29.334,3 H 25 V 1 C 25,0.447 24.553,0 24,0 23.447,0 23,0.447 23,1 V 3 H 17 V 1 C 17,0.447 16.552,0 16,0 15.448,0 15,0.447 15,1 V 3 H 9 V 1 C 9,0.447 8.552,0 8,0 7.448,0 7,0.447 7,1 V 3 H 2.667 C 1.194,3 0,4.193 0,5.666 V 29.333 C 0,30.806 1.194,32 2.667,32 H 29.334 C 30.807,32 32,30.806 32,29.333 V 5.666 C 32,4.193 30.807,3 29.334,3 z M 30,29.333 C 30,29.701 29.701,30 29.334,30 H 2.667 C 2.299,30 2,29.701 2,29.333 V 5.666 C 2,5.299 2.299,5 2.667,5 H 7 V 7 C 7,7.553 7.448,8 8,8 8.552,8 9,7.553 9,7 V 5 h 6 v 2 c 0,0.553 0.448,1 1,1 0.552,0 1,-0.447 1,-1 V 5 h 6 v 2 c 0,0.553 0.447,1 1,1 0.553,0 1,-0.447 1,-1 V 5 h 4.334 C 29.701,5 30,5.299 30,5.666 v 23.667 z"
           id="path3276" />
        <rect
           style="fill:#333332"
           height="3"
           width="4"
           x="7"
           y="12"
           id="rect3278" />
        <rect
           style="fill:#333332"
           height="3"
           width="4"
           x="7"
           y="17"
           id="rect3280" />
        <rect
           style="fill:#333332"
           height="3"
           width="4"
           x="7"
           y="22"
           id="rect3282" />
        <rect
           style="fill:#333332"
           height="3"
           width="4"
           x="14"
           y="22"
           id="rect3284" />
        <rect
           style="fill:#333332"
           height="3"
           width="4"
           x="14"
           y="17"
           id="rect3286" />
        <rect
           style="fill:#333332"
           height="3"
           width="4"
           x="14"
           y="12"
           id="rect3288" />
        <rect
           style="fill:#333332"
           height="3"
           width="4"
           x="21"
           y="22"
           id="rect3290" />
        <rect
           style="fill:#333332"
           height="3"
           width="4"
           x="21"
           y="17"
           id="rect3292" />
        <rect
           style="fill:#333332"
           height="3"
           width="4"
           x="21"
           y="12"
           id="rect3294" />
      </g>
      <text
         sodipodi:linespacing="125%"
         id="text4273-7-7"
         y="20.12701"
         x="366.34244"
         style="font-size:20px;font-style:normal;font-variant:normal;font-weight:normal;font-stretch:normal;text-align:start;line-height:125%;letter-spacing:0px;word-spacing:0px;writing-mode:lr-tb;text-anchor:start;fill:#000000;fill-opacity:1;stroke:none;font-family:Sans;-inkscape-font-specification:Sans"
         xml:space="preserve"><tspan
           y="20.12701"
           x="366.34244"
           sodipodi:role="line"
           id="tspan3818">调度员</tspan></text>
    </g>
    <g
       style="display:inline"
       id="g4316"
       transform="translate(529.12859,-86.18796)">
      <g
         style="fill:#000000;fill-opacity:0.72081221"
         id="layer1-6"
         transform="matrix(0.73142906,0,0,1.0239998,198.87186,-973.00565)">
        <path
           inkscape:connector-curvature="0"
           d="m 58.723294,966.29002 -39.583305,22.91663 8.333327,0 0,4.16661 0,25.00014 0,4.1666 c 0,2.0834 1.858332,4.1667 4.166664,4.1667 l 12.499991,0 0,-20.8333 c 0,-2.3084 1.858291,-4.1667 4.166664,-4.1667 l 29.166646,0 c 2.308373,0 4.09458,1.8595 4.166663,4.1667 l 0,20.8333 12.499992,0 c 2.308331,0 4.166663,-1.8583 4.166663,-4.1667 l 0,-4.1666 0,-25.00014 0,-4.16661 8.333331,0 -39.583308,-22.91663 c -1.781124,-1.03125 -3.533998,-2.08124 -4.166664,-2.08333 -0.63275,-0.002 -2.358248,1.03625 -4.166664,2.08333 z m -10.416659,39.58338 0,4.1666 29.166646,0 0,-4.1666 z m 0,8.3333 0,4.1667 29.166646,0 0,-4.1667 z m 0,8.3333 0,4.1667 29.166646,0 0,-4.1667 z"
           id="path4181"
           style="color:#000000;fill:#000000;fill-opacity:0.72081221;fill-rule:nonzero;stroke:none;stroke-width:1;marker:none;visibility:visible;display:inline;overflow:visible;enable-background:accumulate" />
      </g>
      <text
         sodipodi:linespacing="125%"
         id="text4273-7-7-0"
         y="101.84039"
         x="215.1839"
         style="font-size:20px;font-style:normal;font-variant:normal;font-weight:normal;font-stretch:normal;text-align:start;line-height:125%;letter-spacing:0px;word-spacing:0px;writing-mode:lr-tb;text-anchor:start;fill:#000000;fill-opacity:1;stroke:none;font-family:Sans;-inkscape-font-specification:Sans"
         xml:space="preserve"><tspan
           id="tspan4340"
           y="101.84039"
           x="215.1839"
           sodipodi:role="line">仓管员</tspan></text>
    </g>
    <g
       style="display:inline"
       id="g4294"
       transform="translate(262.62313,172.02744)">
      <g
         transform="matrix(2,0,0,1.9999375,360.04356,-243.88359)"
         id="search_1_">
        <path
           style="fill:#333333"
           inkscape:connector-curvature="0"
           d="m 20,0.005 c -6.627,0 -12,5.373 -12,12 0,2.026 0.507,3.933 1.395,5.608 l -8.344,8.342 0.007,0.006 C 0.406,26.602 0,27.49 0,28.477 c 0,1.949 1.58,3.529 3.529,3.529 0.985,0 1.874,-0.406 2.515,-1.059 l -0.002,-0.002 8.341,-8.34 c 1.676,0.891 3.586,1.4 5.617,1.4 6.627,0 12,-5.373 12,-12 0,-6.627 -5.373,-12 -12,-12 z M 4.795,29.697 c -0.322,0.334 -0.768,0.543 -1.266,0.543 -0.975,0 -1.765,-0.789 -1.765,-1.764 0,-0.498 0.21,-0.943 0.543,-1.266 l -0.009,-0.008 8.066,-8.066 c 0.705,0.951 1.545,1.791 2.494,2.498 L 4.795,29.697 z M 20,22.006 c -5.522,0 -10,-4.479 -10,-10 0,-5.522 4.478,-10 10,-10 5.521,0 10,4.478 10,10 0,5.521 -4.479,10 -10,10 z"
           id="path3125" />
        <path
           style="fill:#333333"
           inkscape:connector-curvature="0"
           d="m 20,5.005 c -3.867,0 -7,3.134 -7,7 0,0.276 0.224,0.5 0.5,0.5 0.276,0 0.5,-0.224 0.5,-0.5 0,-3.313 2.686,-6 6,-6 0.275,0 0.5,-0.224 0.5,-0.5 0,-0.276 -0.225,-0.5 -0.5,-0.5 z"
           id="path3127" />
      </g>
      <text
         sodipodi:linespacing="125%"
         id="text4273-7-7-0-9"
         y="-155.96486"
         x="362.27792"
         style="font-size:20px;font-style:normal;font-variant:normal;font-weight:normal;font-stretch:normal;text-align:start;line-height:125%;letter-spacing:0px;word-spacing:0px;writing-mode:lr-tb;text-anchor:start;fill:#000000;fill-opacity:1;stroke:none;font-family:Sans;-inkscape-font-specification:Sans"
         xml:space="preserve"><tspan
           id="tspan4340-2"
           y="-155.96486"
           x="362.27792"
           sodipodi:role="line">质检员</tspan></text>
    </g>
    <g
       style="display:inline"
       id="g4322"
       transform="translate(443.95948,-4.1045854)">
      <g
         transform="matrix(2,0,0,2.0000625,59.373886,-67.74557)"
         id="settings">
        <path
           style="fill:#333333"
           inkscape:connector-curvature="0"
           d="M 30.391,12.68 27.327,12.066 C 27.173,11.623 26.991,11.193 26.79,10.777 L 28.526,8.173 C 29.055,7.38 28.95,6.323 28.276,5.65 L 26.352,3.726 C 25.965,3.339 25.454,3.14 24.936,3.14 c -0.383,0 -0.77,0.11 -1.107,0.336 L 21.225,5.211 C 20.807,5.009 20.377,4.829 19.934,4.675 L 19.32,1.61 C 19.134,0.674 18.312,0.002 17.359,0.002 h -2.72 c -0.953,0 -1.774,0.673 -1.961,1.608 L 12.064,4.675 C 11.621,4.829 11.191,5.01 10.775,5.211 L 8.172,3.476 C 7.833,3.25 7.447,3.14 7.063,3.14 6.546,3.14 6.035,3.339 5.648,3.726 L 3.725,5.65 C 3.051,6.324 2.946,7.38 3.475,8.173 l 1.735,2.604 c -0.202,0.417 -0.382,0.847 -0.536,1.29 L 1.608,12.68 C 0.673,12.867 0,13.688 0,14.641 v 2.72 c 0,0.953 0.673,1.775 1.608,1.961 l 3.065,0.615 c 0.154,0.443 0.335,0.873 0.536,1.289 L 3.475,23.83 c -0.529,0.793 -0.424,1.85 0.25,2.523 l 1.924,1.924 c 0.387,0.387 0.898,0.586 1.415,0.586 0.384,0 0.771,-0.111 1.108,-0.336 l 2.604,-1.736 c 0.417,0.203 0.847,0.383 1.29,0.537 l 0.613,3.064 c 0.187,0.936 1.008,1.609 1.961,1.609 h 2.72 c 0.953,0 1.775,-0.674 1.961,-1.609 l 0.615,-3.064 c 0.443,-0.154 0.873,-0.336 1.289,-0.537 l 2.604,1.736 c 0.338,0.225 0.725,0.336 1.107,0.336 0.518,0 1.029,-0.199 1.416,-0.586 l 1.924,-1.924 c 0.674,-0.674 0.779,-1.73 0.25,-2.523 L 26.79,21.226 c 0.203,-0.418 0.383,-0.848 0.537,-1.291 l 3.064,-0.613 C 31.326,19.137 32,18.314 32,17.361 v -2.72 c 0,-0.953 -0.674,-1.774 -1.609,-1.961 z m -3.457,5.295 c -0.695,0.139 -1.264,0.635 -1.496,1.305 -0.129,0.369 -0.279,0.727 -0.447,1.074 -0.311,0.639 -0.258,1.393 0.135,1.982 l 1.736,2.604 -1.924,1.924 -2.604,-1.736 C 22,24.905 21.613,24.792 21.225,24.792 c -0.297,0 -0.596,0.066 -0.871,0.199 -0.348,0.168 -0.705,0.32 -1.076,0.449 -0.668,0.232 -1.164,0.801 -1.303,1.496 l -0.615,3.066 h -2.72 l -0.613,-3.066 c -0.139,-0.695 -0.635,-1.264 -1.304,-1.496 -0.369,-0.129 -0.728,-0.279 -1.075,-0.447 -0.276,-0.135 -0.574,-0.201 -0.872,-0.201 -0.389,0 -0.775,0.113 -1.109,0.336 L 7.063,26.864 5.139,24.94 6.874,22.336 C 7.267,21.746 7.318,20.992 7.011,20.356 6.843,20.008 6.692,19.651 6.563,19.28 6.331,18.612 5.761,18.116 5.067,17.977 L 2.002,17.362 2,14.641 5.066,14.028 C 5.76,13.889 6.33,13.393 6.562,12.724 6.691,12.355 6.84,11.996 7.009,11.649 7.319,11.011 7.267,10.257 6.873,9.668 L 5.139,7.064 7.062,5.14 9.666,6.875 c 0.334,0.223 0.721,0.336 1.109,0.336 0.297,0 0.595,-0.066 0.871,-0.199 0.347,-0.168 0.705,-0.319 1.075,-0.448 0.669,-0.232 1.165,-0.802 1.304,-1.496 l 0.614,-3.065 2.72,-0.001 0.613,3.066 c 0.139,0.694 0.635,1.264 1.305,1.496 0.369,0.129 0.727,0.278 1.074,0.447 0.277,0.134 0.574,0.2 0.873,0.2 0.389,0 0.775,-0.113 1.109,-0.336 l 2.604,-1.735 1.924,1.924 -1.736,2.604 c -0.393,0.59 -0.443,1.343 -0.137,1.98 0.168,0.347 0.32,0.705 0.449,1.075 0.232,0.669 0.801,1.165 1.496,1.304 l 3.064,0.614 0.003,2.72 -3.066,0.614 z"
           id="path3192" />
        <path
           style="fill:#333333"
           inkscape:connector-curvature="0"
           d="m 16,9.001 c -3.865,0 -7,3.135 -7,7 0,3.866 3.135,7 7,7 3.865,0 7,-3.135 7,-7 0,-3.865 -3.135,-7 -7,-7 z m 0,13.126 c -3.382,0 -6.125,-2.744 -6.125,-6.125 0,-3.382 2.743,-6.125 6.125,-6.125 3.381,0 6.125,2.743 6.125,6.125 0,3.381 -2.744,6.125 -6.125,6.125 z"
           id="path3194" />
        <path
           style="fill:#333333"
           inkscape:connector-curvature="0"
           d="m 16,12.001 c -2.21,0 -4,1.79 -4,4 0,2.209 1.79,4 4,4 2.209,0 4,-1.791 4,-4 0,-2.209 -1.791,-4 -4,-4 z m 0,7.001 c -1.656,0 -3,-1.344 -3,-3 0,-1.656 1.344,-3 3,-3 1.656,0 3,1.344 3,3 0,1.656 -1.344,3 -3,3 z"
           id="path3196" />
      </g>
      <text
         sodipodi:linespacing="125%"
         id="text4273-7-4"
         y="19.164438"
         x="51.491074"
         style="font-size:20px;font-style:normal;font-variant:normal;font-weight:normal;font-stretch:normal;text-align:start;line-height:125%;letter-spacing:0px;word-spacing:0px;writing-mode:lr-tb;text-anchor:start;fill:#000000;fill-opacity:1;stroke:none;font-family:Sans;-inkscape-font-specification:Sans"
         xml:space="preserve"><tspan
           y="19.164438"
           x="51.491074"
           id="tspan4275-6-0"
           sodipodi:role="line">生产人员</tspan></text>
    </g>
    <text
       xml:space="preserve"
       style="font-size:20px;font-style:normal;font-variant:normal;font-weight:normal;font-stretch:normal;text-align:start;line-height:125%;letter-spacing:0px;word-spacing:0px;writing-mode:lr-tb;text-anchor:start;fill:#000000;fill-opacity:1;stroke:none;font-family:Sans;-inkscape-font-specification:Sans"
       x="38.000008"
       y="18.177547"
       id="text4273-7"
       sodipodi:linespacing="125%"><tspan
         sodipodi:role="line"
         id="tspan4275-6"
         x="38.000008"
         y="18.177547">经理</tspan></text>
    <g
       id="g4026"
       transform="matrix(1.9999531,0,0,2,26.001509,-71.846155)">
      <g
         id="Layer_1" />
      <g
         id="chart">
        <g
           id="g4012">
          <path
             id="path4014"
             style="fill:#4e4e50"
             d="m 13.74,19.398 -10.008,-10 c -4.977,5.754 -4.977,14.246 0,20 l 10.008,-10 z"
             inkscape:connector-curvature="0" />
          <path
             id="path4016"
             style="fill:#4e4e50"
             d="M 19.914,4.158 V 18.804 L 9.646,29.16 C 11.974,30.898 14.802,32 17.843,32 25.703,32 32,25.711 32,17.941 32,10.883 26.766,5.164 19.914,4.158 z"
             inkscape:connector-curvature="0" />
          <path
             id="path4018"
             style="fill:#4e4e50"
             d="M 15.998,16.016 V 0 C 11.639,0.27 7.701,1.938 4.521,4.537 l 11.477,11.479 z"
             inkscape:connector-curvature="0" />
        </g>
      </g>
    </g>
    <g
       style="display:inline"
       id="g4288"
       transform="translate(20.595425,300.20301)">
      <text
         transform="scale(1.1459078,0.87267056)"
         sodipodi:linespacing="125%"
         id="text4224"
         y="-352.99594"
         x="313.10452"
         style="font-size:100.60041809px;font-style:normal;font-weight:normal;line-height:125%;letter-spacing:0px;word-spacing:0px;fill:#333333;fill-opacity:1;stroke:none;font-family:Sans"
         xml:space="preserve"><tspan
           y="-352.99594"
           x="313.10452"
           id="tspan4226"
           sodipodi:role="line">¥</tspan></text>
      <text
         sodipodi:linespacing="125%"
         id="text4273-74"
         y="-282.00549"
         x="375.40457"
         style="font-size:20px;font-style:normal;font-variant:normal;font-weight:normal;font-stretch:normal;text-align:start;line-height:125%;letter-spacing:0px;word-spacing:0px;writing-mode:lr-tb;text-anchor:start;fill:#000000;fill-opacity:1;stroke:none;display:inline;font-family:Sans;-inkscape-font-specification:Sans"
         xml:space="preserve"><tspan
           id="tspan4284"
           y="-282.00549"
           x="375.40457"
           sodipodi:role="line">财会</tspan></text>
    </g>
    <rect
       style="fill:#999999;fill-opacity:1;stroke:#3399ff;stroke-width:0;stroke-linecap:round;stroke-miterlimit:4;stroke-opacity:1;stroke-dasharray:none;stroke-dashoffset:0.90000000000000002"
       id="rect5594"
       width="810.44672"
       height="40"
       x="11.553343"
       y="47.536808" />
    <text
       xml:space="preserve"
       style="font-size:44.8911705px;font-style:normal;font-variant:normal;font-weight:bold;font-stretch:normal;text-align:start;line-height:125%;letter-spacing:0px;word-spacing:0px;writing-mode:lr-tb;text-anchor:start;fill:#ffffff;fill-opacity:1;stroke:none;font-family:Sans;-inkscape-font-specification:Sans Bold"
       x="280.34549"
       y="92.530708"
       id="text5626"
       sodipodi:linespacing="125%"
       transform="scale(1.1222793,0.89104379)"><tspan
         sodipodi:role="line"
         x="280.34549"
         y="92.530708"
         id="tspan5630">LiteFac</tspan></text>
    <path
       style="fill:none;stroke:#999999;stroke-width:8;stroke-linecap:round;stroke-linejoin:miter;stroke-miterlimit:4;stroke-opacity:1;stroke-dasharray:none"
       d="m 172.07557,28.040328 c 0,20.272744 0,20.272744 0,20.272744"
       id="path5649"
       inkscape:connector-curvature="0" />
    <path
       style="fill:none;stroke:#999999;stroke-width:8;stroke-linecap:round;stroke-linejoin:miter;stroke-miterlimit:4;stroke-opacity:1;stroke-dasharray:none"
       d="m 293.21361,28.686072 c 0,18.701476 0,18.701476 0,18.701476"
       id="path5651"
       inkscape:connector-curvature="0" />
    <path
       style="fill:none;stroke:#999999;stroke-width:8;stroke-linecap:round;stroke-linejoin:miter;stroke-miterlimit:4;stroke-opacity:1;stroke-dasharray:none"
       d="m 410.44534,27.935249 c 0,20.203122 0,20.203122 0,20.203122"
       id="path5653"
       inkscape:connector-curvature="0" />
    <path
       style="fill:none;stroke:#999999;stroke-width:8;stroke-linecap:round;stroke-linejoin:miter;stroke-miterlimit:4;stroke-opacity:1;stroke-dasharray:none"
       d="m 529.60394,28.510497 c 0.34683,19.052626 0,19.052626 0,19.052626"
       id="path5655"
       inkscape:connector-curvature="0" />
    <path
       style="fill:none;stroke:#999999;stroke-width:8;stroke-linecap:round;stroke-linejoin:miter;stroke-miterlimit:4;stroke-opacity:1;stroke-dasharray:none"
       d="m 648.81511,28.421484 c 0,19.882581 0,19.882581 0,19.882581"
       id="path5657"
       inkscape:connector-curvature="0" />
    <path
       style="fill:none;stroke:#999999;stroke-width:8;stroke-linecap:round;stroke-linejoin:miter;stroke-miterlimit:4;stroke-opacity:1;stroke-dasharray:none;display:inline"
       d="m 776.26111,27.205896 c 0,19.882581 0,19.882581 0,19.882581"
       id="path5657-0"
       inkscape:connector-curvature="0" />
    <path
       style="fill:none;stroke:#999999;stroke-width:8;stroke-linecap:round;stroke-linejoin:miter;stroke-miterlimit:4;stroke-opacity:1;stroke-dasharray:none;display:inline"
       d="m 56.593758,27.583797 c 0,19.88258 0,19.88258 0,19.88258"
       id="path5657-2"
       inkscape:connector-curvature="0" />
  </g>
</svg>
