<?xml version="1.0" encoding="UTF-8" standalone="no"?>
<svg
   xmlns:dc="http://purl.org/dc/elements/1.1/"
   xmlns:cc="http://creativecommons.org/ns#"
   xmlns:rdf="http://www.w3.org/1999/02/22-rdf-syntax-ns#"
   xmlns:svg="http://www.w3.org/2000/svg"
   xmlns="http://www.w3.org/2000/svg"
   xmlns:sodipodi="http://sodipodi.sourceforge.net/DTD/sodipodi-0.dtd"
   xmlns:inkscape="http://www.inkscape.org/namespaces/inkscape"
   height="32px"
   version="1.1"
   viewBox="0 0 32 32"
   width="32px"
   id="svg2"
   inkscape:version="0.48.4 r9939"
   sodipodi:docname="local_service.svg"
   inkscape:export-filename="/home/xc/work/litefac-launchpad-env/litefac-launchpad/litefac_launchpad/static/images/local_service.png"
   inkscape:export-xdpi="720"
   inkscape:export-ydpi="720">
  <metadata
     id="metadata13">
    <rdf:RDF>
      <cc:Work
         rdf:about="">
        <dc:format>image/svg+xml</dc:format>
        <dc:type
           rdf:resource="http://purl.org/dc/dcmitype/StillImage" />
        <dc:title />
      </cc:Work>
    </rdf:RDF>
  </metadata>
  <sodipodi:namedview
     pagecolor="#ffffff"
     bordercolor="#666666"
     borderopacity="1"
     objecttolerance="10"
     gridtolerance="10"
     guidetolerance="10"
     inkscape:pageopacity="0"
     inkscape:pageshadow="2"
     inkscape:window-width="1680"
     inkscape:window-height="1021"
     id="namedview11"
     showgrid="false"
     inkscape:zoom="7.375"
     inkscape:cx="-29.016949"
     inkscape:cy="10.576271"
     inkscape:window-x="0"
     inkscape:window-y="0"
     inkscape:window-maximized="1"
     inkscape:current-layer="layer2" />
  <defs
     id="defs6" />
  <g
     inkscape:groupmode="layer"
     id="layer2"
     inkscape:label="层#1"
     style="display:inline">
    <rect
       style="opacity:0.85067875000000004;fill:#339966;fill-opacity:0.94117647;stroke-width:1.49881887000000003;stroke-miterlimit:4;stroke-dasharray:none;stroke-dashoffset:0.90000000000000002;display:inline"
       id="rect2990-4"
       width="11.661017"
       height="21.423729"
       x="19.169744"
       y="0.81355983" />
    <rect
       style="fill:#ffffff;fill-opacity:0.94117647;stroke-width:1.49881887;stroke-miterlimit:4;stroke-dasharray:none;stroke-dashoffset:0.9;display:inline"
       id="rect2996-2"
       width="7.3220339"
       height="2.0338984"
       x="21.220594"
       y="5.4237275" />
    <rect
       style="fill:#ffffff;fill-opacity:0.94117647;stroke-width:1.49881887;stroke-miterlimit:4;stroke-dasharray:none;stroke-dashoffset:0.9;display:inline"
       id="rect2996-7-5"
       width="7.3220339"
       height="2.0338984"
       x="21.220594"
       y="8.2033901" />
    <rect
       style="fill:#ffffff;fill-opacity:0.94117647;stroke-width:1.49881887;stroke-miterlimit:4;stroke-dasharray:none;stroke-dashoffset:0.9;display:inline"
       id="rect2996-1-8"
       width="7.3220339"
       height="2.0338984"
       x="21.220594"
       y="11.050847" />
    <path
       transform="translate(18.220594,-8.4067807)"
       sodipodi:type="arc"
       style="fill:#ffffff;fill-opacity:0.94117647;stroke-width:1.49881887;stroke-miterlimit:4;stroke-dasharray:none;stroke-dashoffset:0.9;display:inline"
       id="path3023-0"
       sodipodi:cx="6.7796612"
       sodipodi:cy="25.423729"
       sodipodi:rx="0.81355929"
       sodipodi:ry="0.88135594"
       d="m 7.5932205,25.423729 a 0.81355929,0.88135594 0 1 1 -1.6271186,0 0.81355929,0.88135594 0 1 1 1.6271186,0 z" />
    <rect
       style="fill:#ffffff;fill-opacity:0.94117647;stroke-width:1.49881887;stroke-miterlimit:4;stroke-dasharray:none;stroke-dashoffset:0.9;display:inline"
       id="rect2996-76-8"
       width="7.3220339"
       height="2.0338984"
       x="21.220594"
       y="2.7796605" />
  </g>
  <g
     inkscape:groupmode="layer"
     id="layer1"
     inkscape:label="层"
     style="display:inline">
    <g
       id="Icons new Arranged Names Color-9"
       style="fill:none;fill-opacity:1;stroke:#00ffff;stroke-width:1.79236736;stroke-miterlimit:4;stroke-opacity:1;stroke-dasharray:none;display:inline"
       transform="matrix(0.73460895,0,0,0.77224885,5.314308,-0.403123)">
      <g
         id="52 Cloud Sync"
         style="fill:none;fill-opacity:1;stroke:#00ffff;stroke-width:1.79236736;stroke-miterlimit:4;stroke-opacity:1;stroke-dasharray:none">
        <path
           id="Rectangle 1 copy 4"
           d="m 16,26 c 2.418953,0 4.436703,-1.717753 4.899982,-4 l 2.029129,0 C 22.443885,25.392291 19.526474,28 16,28 13.555527,28 11.403706,26.747009 10.151757,24.848243 L 9,26 9,25 9,23 9,22 9.0708888,22 11.100018,22 13,22 11.608137,23.391863 C 12.456236,24.945806 14.105008,26 16,26 z M 20.899982,20 20,20 19,20 20.391875,18.608159 C 19.543801,17.054217 17.895013,16 16,16 c -2.418953,0 -4.436703,1.717753 -4.899982,4 L 9.0708888,20 C 9.5561148,16.607709 12.473526,14 16,14 c 2.444487,0 4.59632,1.253007 5.848271,3.151799 L 23,16.000098 23,20 22.929111,20 z M 0,19 C 0,16.782838 1.2075399,14.841641 3.0021135,13.802995 3.1069062,8.9234028 7.0952729,5 12,5 15.233498,5 18.068721,6.7052116 19.65547,9.2654333 20.240206,9.092705 20.859277,9 21.5,9 c 2.784553,0 5.16015,1.750949 6.085843,4.211897 C 30.129704,13.907454 32,16.235367 32,19 c 0,3.306966 -2.68637,6 -6.000176,6 l -1.935344,0 c 0.312341,-0.628505 0.553371,-1.298702 0.712504,-2 l 1.226177,0 C 28.210554,23 30,21.204644 30,19 30,16.790861 28.20588,15 26.003161,15 l -0.03062,0 C 25.723803,12.750016 23.816271,11 21.5,11 20.442753,11 19.470664,11.364599 18.702606,11.974922 17.834068,9.0963276 15.161846,7 12,7 8.1340066,7 5,10.134007 5,14 5,14.375791 5.029612,14.744666 5.086631,15.104418 3.3177882,15.517576 2,17.108083 2,19 c 0,2.209139 1.7941203,4 3.9968389,4 L 7,23 7,25 6.0001757,25 C 2.686978,25 0,22.313708 0,19 z m 0,0"
           inkscape:connector-curvature="0"
           style="fill:none;fill-opacity:1;stroke:#00ffff;stroke-width:1.79236736;stroke-miterlimit:4;stroke-opacity:1;stroke-dasharray:none" />
      </g>
    </g>
    <rect
       style="fill:#3399ff;fill-opacity:1;stroke-width:1.49881887000000003;stroke-miterlimit:4;stroke-dasharray:none;stroke-dashoffset:0.90000000000000002;display:inline"
       id="rect2990"
       width="11.661017"
       height="21.423729"
       x="1.6271185"
       y="9.4915247" />
    <rect
       style="fill:#ffffff;fill-opacity:0.94117647;stroke-width:1.49881887;stroke-miterlimit:4;stroke-dasharray:none;stroke-dashoffset:0.9;display:inline"
       id="rect2996"
       width="7.3220339"
       height="2.0338984"
       x="3.6779664"
       y="14.101693" />
    <rect
       style="fill:#ffffff;fill-opacity:0.94117647;stroke-width:1.49881887;stroke-miterlimit:4;stroke-dasharray:none;stroke-dashoffset:0.9;display:inline"
       id="rect2996-7"
       width="7.3220339"
       height="2.0338984"
       x="3.6779664"
       y="16.881357" />
    <rect
       style="fill:#ffffff;fill-opacity:0.94117647;stroke-width:1.49881887;stroke-miterlimit:4;stroke-dasharray:none;stroke-dashoffset:0.9;display:inline"
       id="rect2996-1"
       width="7.3220339"
       height="2.0338984"
       x="3.6779664"
       y="19.728815" />
    <path
       transform="translate(0.67796608,0.27118605)"
       sodipodi:type="arc"
       style="fill:#ffffff;fill-opacity:0.94117647;stroke-width:1.49881887;stroke-miterlimit:4;stroke-dasharray:none;stroke-dashoffset:0.9;display:inline"
       id="path3023"
       sodipodi:cx="6.7796612"
       sodipodi:cy="25.423729"
       sodipodi:rx="0.81355929"
       sodipodi:ry="0.88135594"
       d="m 7.5932205,25.423729 a 0.81355929,0.88135594 0 1 1 -1.6271186,0 0.81355929,0.88135594 0 1 1 1.6271186,0 z" />
    <rect
       style="fill:#ffffff;fill-opacity:0.94117647;stroke-width:1.49881887;stroke-miterlimit:4;stroke-dasharray:none;stroke-dashoffset:0.9;display:inline"
       id="rect2996-76"
       width="7.3220339"
       height="2.0338984"
       x="3.6779664"
       y="11.457627" />
  </g>
</svg>
